# xmcd
#
# Track frame offsets:
#	150
#	18989
#	42035
#	52823
#	67001
#	74188
#	80648
#	87184
#	98590
#	103495
#	110478
#	122245
#	129833
#	137705
#	153626
#	159989
#	172651
#	189633
#	207261
#	232436
#	246184
#	254388
#	287999
#
# Disc length: 4083 seconds
#
# Revision: 0
# Processed by: cddbd v1.5.2PL0 Copyright (c) Steve Scherf et al.
# Submitted via: EZCDAudioConverter 3.1.5.1
#
DISCID=500ff117
DTITLE=Nana Mouskouri - Live At Odeon Herodus Atticus, Athens, The Farewell Wo
DTITLE=rld Tour, July 24th, 2008
DYEAR=1900
DGENRE=
TTITLE0=Pefti Vrochi
TTITLE1=To Pedi Me To Tambourlo
TTITLE2=I Endekati Entoli
TTITLE3=Plaisir D'Amour
TTITLE4=Xipna Agapi Mou
TTITLE5=Kokkino Garifalo
TTITLE6=Ilie Pou Chatikes
TTITLE7=Ximeroni
TTITLE8=O Imittos
TTITLE9=Spiti Mou Spitaki Mou
TTITLE10=White Roses Of Athens
TTITLE11=I Prodosia
TTITLE12=Ta Pedia Tou Pirea
TTITLE13=Me And Bobby McGee
TTITLE14=Turn On The Sun
TTITLE15=Come On Blue
TTITLE16=Odos Oniron
TTITLE17=Pame Mia Volta Sto Fegari
TTITLE18=Come And Sing
TTITLE19=Aspri Mera
TTITLE20=Milise Mou
TTITLE21=Ta Pedia Tis Samarinas
TTITLE22=Hartino To Fegaraki
EXTD=
EXTT0=
EXTT1=
EXTT2=
EXTT3=
EXTT4=
EXTT5=
EXTT6=
EXTT7=
EXTT8=
EXTT9=
EXTT10=
EXTT11=
EXTT12=
EXTT13=
EXTT14=
EXTT15=
EXTT16=
EXTT17=
EXTT18=
EXTT19=
EXTT20=
EXTT21=
EXTT22=
PLAYORDER=
